<svg xmlns="http://www.w3.org/2000/svg" width="28" height="28"><path d="M27.248 7.888a4.028 4.028 0 00-2.928-1.266 4.027 4.027 0 00-2.927 1.266L19.75 9.6a4.3 4.3 0 00-2.031-2.078L16.62 7A16.585 16.585 0 019.452.32a.665.665 0 00-.71-.324.684.684 0 00-.532.582l-.1.686a16.061 16.061 0 001.587 9.471 15.632 15.632 0 01-8.889.361.663.663 0 00-.72.291.712.712 0 00.021.8l.4.553a14.711 14.711 0 007.468 5.469 14.312 14.312 0 002.948.616l-3.161 3.3-4.886 3.809a.708.708 0 00-.245.733.681.681 0 00.566.51l6.291.821a.624.624 0 00.084.006.662.662 0 00.512-.245l3.182-3.865 2.19.237a7.523 7.523 0 005.639-1.708A8.186 8.186 0 0024 17.1l.61-4.79a3.117 3.117 0 001.8.19c.07-.01.157-.023.187-.022a1.406 1.406 0 001.391-1.406c.006-.43.013-1 .013-1.286a2.728 2.728 0 00-.753-1.898zM9.332 2.622a17.8 17.8 0 006.721 5.634l1.1.528a2.961 2.961 0 011.561 1.9l-1.33 1.389-1.852-1.445a4.051 4.051 0 00-4-.6l-.55.216a14.614 14.614 0 01-1.65-7.622zM9.3 26.57l-4.289-.56 3.4-2.646 3.244.351zm17.341-15.52a.037.037 0 01-.037.037 2.554 2.554 0 00-.383.036 1.982 1.982 0 01-1.744-.487.655.655 0 00-.664-.084.692.692 0 00-.406.549l-.74 5.816a6.794 6.794 0 01-2.406 4.416 6.227 6.227 0 01-4.66 1.413l-5.927-.641 3.084-3.222a14.225 14.225 0 004.344-.828.7.7 0 00.416-.883.668.668 0 00-.855-.429 12.943 12.943 0 01-4.134.757h-.223a13.155 13.155 0 01-10.02-4.708 16.947 16.947 0 008.584-1.015l1.13-.442a2.75 2.75 0 012.717.4l2.321 1.812a.655.655 0 00.7.067.665.665 0 00.185-.14L22.34 8.86a2.7 2.7 0 013.942 0 1.324 1.324 0 01.364.92c.009.279.002.844-.004 1.27z" fill-rule="evenodd"/></svg>