<svg id="logo" xmlns="http://www.w3.org/2000/svg" width="124.719" height="50"><defs><style>.cls-1{fill:#fff;fill-rule:evenodd}</style></defs><path class="cls-1" d="M409.538 77.37c.033-5.635-9-5.33-7.246-13.049-4.169 5.785 2.847 8.7.259 12.537s-5.807 2.431-5.807 6.78 4.772 3.711 3.995 7.293c-.307 1.42-1.7 3.143-3.279 4.7a11.839 11.839 0 00.692-3.937c0-4.349-5.692-2.814-6.469-7.164s8.741-8.059 6.671-15.224-6.929-3.71-7.965-7.036 4.284-5.473-.258-12.281c1.812 5.885-4.14 6.653-6.211 15.352s6.987 5.885 7.763 11-5.52 7.065-7.13 13.433a17.479 17.479 0 00-.7 4.418 8.56 8.56 0 01-2.032-3.381c-.776-3.581 4-2.943 4-7.292s-2.242-2.872-4.83-6.71 3.45-6.823-.719-12.608c1.755 7.718-5.3 7.087-5.261 12.722.029 4.79.892 2.3 2.185 7.164s-3.45 4.037-1.38 9.666 16.1 6.462 17.4 6.189c2.945-.253 11.816-1.4 13.537-6.076 2.07-5.629-2.674-4.8-1.38-9.666s4.135-2.041 4.165-6.83z" transform="translate(-375 -50)"/><path id="Drop" class="cls-1" d="M411.458 98.148a13.031 13.031 0 008.567-3.065 12.875 12.875 0 004.56-7.912l.775-4.358q.858-4.828-1.748-7.912a9.24 9.24 0 00-7.473-3.083h-9.262l-4.677 26.33h9.261zm3.957-22.262a4.312 4.312 0 013.886 1.935 6.682 6.682 0 01.723 4.955l-.781 4.395a9.072 9.072 0 01-2.49 4.982 6.272 6.272 0 01-4.575 1.944h-3.938l3.237-18.211h3.938zm22.909 11.737a3.5 3.5 0 012.877 1.094 3.667 3.667 0 01.54 3.065l-.331 1.863a16.667 16.667 0 00-.25 2.586 2.435 2.435 0 00.6 1.917h5.487l.068-.38a2.579 2.579 0 01-.714-1.781 9.336 9.336 0 01.109-2.306l.344-1.935a6.623 6.623 0 00-.323-3.978 4.486 4.486 0 00-2.973-2.3 9.657 9.657 0 003.586-2.378 6.854 6.854 0 001.707-3.5q.651-3.671-1.544-5.724t-6.736-2.053h-9.191l-4.68 26.335h5.323l1.871-10.525h4.23zm-2.144-11.737h3.865a3.823 3.823 0 013.047 1.067 3.323 3.323 0 01.591 2.875 4.231 4.231 0 01-1.588 2.785 5.755 5.755 0 01-3.5.94h-3.774zm38.748 6.728a9.563 9.563 0 00-1.677-8q-2.535-3.174-7.475-3.174a12.506 12.506 0 00-8.522 3.174 13.47 13.47 0 00-4.476 8l-.843 4.738q-.861 4.847 1.639 8.011T461 98.528a12.685 12.685 0 008.582-3.156 13.4 13.4 0 004.507-8.021zm-6.147 4.738a9.617 9.617 0 01-2.438 5.1 6.134 6.134 0 01-4.616 1.971 4.144 4.144 0 01-3.88-1.971 7.327 7.327 0 01-.606-5.1l.849-4.774a9.625 9.625 0 012.4-5.046 6.01 6.01 0 014.553-1.971 4.248 4.248 0 013.934 1.971 7.1 7.1 0 01.653 5.046zM488.23 88.6a12.248 12.248 0 007.61-2.3 9.432 9.432 0 003.705-6.076A6.636 6.636 0 00498 74.132q-2.214-2.315-6.79-2.315h-10.151l-4.681 26.331h5.322l1.7-9.549h4.831zm-2.571-12.713h4.831a3.689 3.689 0 013.162 1.239 3.913 3.913 0 01.581 3.138 5.167 5.167 0 01-1.693 3.065 5.219 5.219 0 01-3.586 1.2h-4.832z" transform="translate(-375 -50)"/></svg>